<?xml version="1.0" standalone="no"?>
<!DOCTYPE svg PUBLIC "-//W3C//DTD SVG 20010904//EN"
 "http://www.w3.org/TR/2001/REC-SVG-20010904/DTD/svg10.dtd">
<svg version="1.0" xmlns="http://www.w3.org/2000/svg"
 width="512.000000pt" height="512.000000pt" viewBox="0 0 512.000000 512.000000"
 preserveAspectRatio="xMidYMid meet">
<metadata>
Created by potrace 1.11, written by Peter Selinger 2001-2013
</metadata>
<g transform="translate(0.000000,512.000000) scale(0.100000,-0.100000)"
fill="#000000" stroke="none">
<path d="M2379 5116 c-2 -2 -35 -6 -74 -10 -38 -3 -97 -10 -130 -16 -33 -6
-76 -13 -95 -16 -106 -17 -413 -105 -434 -125 -6 -5 -16 -9 -23 -9 -31 0 -241
-103 -388 -191 -209 -124 -448 -325 -602 -505 -71 -83 -79 -92 -99 -119 -10
-15 -33 -46 -50 -69 -128 -171 -262 -426 -337 -641 -27 -77 -74 -235 -81 -275
-2 -14 -7 -36 -10 -50 -44 -189 -65 -558 -44 -780 34 -353 155 -726 337 -1040
43 -74 159 -246 183 -272 7 -7 29 -34 48 -58 142 -185 404 -415 633 -556 278
-172 645 -310 936 -350 20 -3 79 -11 131 -18 75 -11 379 -14 1468 -15 l1372
-2 0 2561 0 2560 -1369 0 c-753 -1 -1370 -2 -1372 -4z"/>
</g>
</svg>
