<svg width="37" height="36" viewBox="0 0 37 36" fill="none" xmlns="http://www.w3.org/2000/svg">
<g clip-path="url(#clip0_70_1476)">
<path fill-rule="evenodd" clip-rule="evenodd" d="M23.9003 12.5993V0.6582H23.8997C23.8997 0.294515 23.6052 0 23.2415 0H12.0118C11.5557 0 11.1186 0.181032 10.7965 0.503107L1.0031 10.2967C0.681029 10.6193 0.5 11.0565 0.5 11.512V29.9422C0.5 30.3059 0.794509 30.6004 1.15819 30.6004H5.9V35.3418C5.9 35.7055 6.19451 36 6.55819 36H24.988C25.4441 36 25.8813 35.819 26.2033 35.4969L35.9967 25.7033C36.3193 25.3807 36.5004 24.9435 36.5004 24.488V13.258V13.2575C36.5004 12.8938 36.2058 12.5993 35.8422 12.5993H23.9003ZM23.9002 12.5998H7.03325C6.40748 12.5998 5.90006 13.1073 5.90006 13.733V30.5998H22.767C23.3928 30.5998 23.9002 30.0924 23.9002 29.4666V12.5998Z" fill="#414549"/>
</g>
<defs>
<clipPath id="clip0_70_1476">
<rect width="36" height="36" fill="white" transform="translate(0.5)"/>
</clipPath>
</defs>
</svg>
