<svg width="40" height="40" viewBox="0 0 40 40" fill="none" xmlns="http://www.w3.org/2000/svg">
<path fill-rule="evenodd" clip-rule="evenodd" d="M19.0519 0.808311C8.86493 1.27882 0.57311 9.5065 0.0292994 19.6899C-0.416904 28.0502 4.27541 35.3624 11.2306 38.7599C13.8242 40.0268 16.9094 38.4344 17.4105 35.5923C17.748 33.6796 16.7743 31.7808 15.0309 30.9255C11.074 28.9837 8.41953 24.7961 8.73346 20.0234C9.10038 14.4406 13.6158 9.90808 19.1969 9.52243C25.7964 9.06587 31.2919 14.2845 31.2919 20.7863C31.2919 25.2491 28.7019 29.1052 24.9434 30.9378C23.2271 31.7749 22.2865 33.6633 22.6184 35.5437C22.6239 35.5756 22.6295 35.6074 22.6351 35.6393C23.1279 38.4333 26.1553 40.026 28.7091 38.7894C35.3914 35.5528 40 28.7096 40 20.7863C40 9.42642 30.5285 0.278446 19.0519 0.808311Z" fill="#99A1AF"/>
<path fill-rule="evenodd" clip-rule="evenodd" d="M20.019 27.8285C16.1358 27.8285 12.9766 24.6696 12.9766 20.7864C12.9766 16.9032 16.1358 13.744 20.019 13.744C23.9018 13.744 27.0611 16.9032 27.0611 20.7864C27.0611 24.6696 23.9018 27.8285 20.019 27.8285Z" fill="#99A1AF"/>
</svg>
